<svg width="42" height="41" viewBox="0 0 42 41" fill="none" xmlns="http://www.w3.org/2000/svg">
<path d="M28.6148 33.717L2.03704 15.3837C-0.656291 13.5259 0.259264 9.65777 3.61778 8.74815L31.8652 1.08148C33.0792 0.643422 34.43 0.818039 35.4927 1.55041C36.5554 2.28278 37.1994 3.48291 37.2222 4.77333L35.5482 30.7718C35.3496 33.8578 31.3082 35.5748 28.6148 33.717Z" fill="url(#paint0_linear)"/>
<path d="M20.1852 38.243L4.52741 7.62223C3.79765 6.19394 3.9296 4.47722 4.86905 3.17723C5.80851 1.87724 7.39708 1.21316 8.98223 1.45778L38 5.9363C39.3553 6.14549 40.5277 6.99268 41.1517 8.21377C41.7757 9.43486 41.7755 10.8813 41.1511 12.1022L27.7837 38.2444C27.0519 39.6685 25.5851 40.5637 23.984 40.5634C22.3829 40.5631 20.9164 39.6673 20.1852 38.243Z" fill="url(#paint1_linear)"/>
<path d="M37.1511 5.80445L22.6859 3.57185L4.92593 8.39408L12.0148 22.2622L28.6148 33.717C28.981 33.9669 29.3839 34.1583 29.8089 34.2844L36.1141 21.9541L37.1511 5.80445Z" fill="#001A49"/>
<defs>
<linearGradient id="paint0_linear" x1="19.4874" y1="41.7331" x2="36.0899" y2="16.4981" gradientUnits="userSpaceOnUse">
<stop stop-color="#FFD7A9"/>
<stop offset="1" stop-color="#FFAE70"/>
</linearGradient>
<linearGradient id="paint1_linear" x1="25.2384" y1="49.8198" x2="51.7929" y2="23.5415" gradientUnits="userSpaceOnUse">
<stop stop-color="#CD10FF"/>
<stop offset="1" stop-color="#9F06FF"/>
</linearGradient>
</defs>
</svg>
